# xmcd
#
# Track frame offsets:
#	150
#	9264
#	22915
#	40733
#	53162
#	66498
#	78740
#	94732
#	109380
#	124050
#
# Disc length: 1775 seconds
#
# Revision: 0
# Processed by: cddbd v1.5.2PL0 Copyright (c) Steve Scherf et al.
# Submitted via: dBpowerAMP V4.0
#
DISCID=7d06ed0a
DTITLE=The Primitive Quartet - Mountain Memories
DYEAR=2000
DGENRE=Gospel
TTITLE0=01_It's Gonna Be Wonderful
TTITLE1=02_GOD Can't See Through The Blood
TTITLE2=03_Here Is Love
TTITLE3=04_His Blood Is On My Soul
TTITLE4=05_That Same Power
TTITLE5=06_Wayside Wells
TTITLE6=07_Memories Of Home
TTITLE7=08_I Saw The Face Of Jesus
TTITLE8=09_If I Could Telephone Heaven
TTITLE9=10_I'm Just A Pilgrim
EXTD=www.primitivequartet.com\nBluegrass Gospel
EXTT0=
EXTT1=
EXTT2=
EXTT3=
EXTT4=
EXTT5=
EXTT6=
EXTT7=
EXTT8=
EXTT9=
PLAYORDER=
